<svg id="visual" viewBox="0 0 960 540" width="960" height="540" xmlns="http://www.w3.org/2000/svg" xmlns:xlink="http://www.w3.org/1999/xlink" version="1.1"><rect x="0" y="0" width="960" height="540" fill="#001220"></rect><path d="M0 331L22.8 328.5C45.7 326 91.3 321 137 318.7C182.7 316.3 228.3 316.7 274 318C319.7 319.3 365.3 321.7 411.2 335C457 348.3 503 372.7 548.8 379.8C594.7 387 640.3 377 686 375.3C731.7 373.7 777.3 380.3 823 373.5C868.7 366.7 914.3 346.3 937.2 336.2L960 326L960 541L937.2 541C914.3 541 868.7 541 823 541C777.3 541 731.7 541 686 541C640.3 541 594.7 541 548.8 541C503 541 457 541 411.2 541C365.3 541 319.7 541 274 541C228.3 541 182.7 541 137 541C91.3 541 45.7 541 22.8 541L0 541Z" fill="#fa7268"></path><path d="M0 417L22.8 410C45.7 403 91.3 389 137 390.3C182.7 391.7 228.3 408.3 274 408.3C319.7 408.3 365.3 391.7 411.2 389.5C457 387.3 503 399.7 548.8 401.5C594.7 403.3 640.3 394.7 686 394.7C731.7 394.7 777.3 403.3 823 408.7C868.7 414 914.3 416 937.2 417L960 418L960 541L937.2 541C914.3 541 868.7 541 823 541C777.3 541 731.7 541 686 541C640.3 541 594.7 541 548.8 541C503 541 457 541 411.2 541C365.3 541 319.7 541 274 541C228.3 541 182.7 541 137 541C91.3 541 45.7 541 22.8 541L0 541Z" fill="#ef5f67"></path><path d="M0 418L22.8 417.2C45.7 416.3 91.3 414.7 137 417C182.7 419.3 228.3 425.7 274 425.7C319.7 425.7 365.3 419.3 411.2 417C457 414.7 503 416.3 548.8 415.8C594.7 415.3 640.3 412.7 686 417C731.7 421.3 777.3 432.7 823 439.2C868.7 445.7 914.3 447.3 937.2 448.2L960 449L960 541L937.2 541C914.3 541 868.7 541 823 541C777.3 541 731.7 541 686 541C640.3 541 594.7 541 548.8 541C503 541 457 541 411.2 541C365.3 541 319.7 541 274 541C228.3 541 182.7 541 137 541C91.3 541 45.7 541 22.8 541L0 541Z" fill="#e34c67"></path><path d="M0 473L22.8 467.3C45.7 461.7 91.3 450.3 137 444.8C182.7 439.3 228.3 439.7 274 439.5C319.7 439.3 365.3 438.7 411.2 446.3C457 454 503 470 548.8 472.7C594.7 475.3 640.3 464.7 686 457.3C731.7 450 777.3 446 823 450.7C868.7 455.3 914.3 468.7 937.2 475.3L960 482L960 541L937.2 541C914.3 541 868.7 541 823 541C777.3 541 731.7 541 686 541C640.3 541 594.7 541 548.8 541C503 541 457 541 411.2 541C365.3 541 319.7 541 274 541C228.3 541 182.7 541 137 541C91.3 541 45.7 541 22.8 541L0 541Z" fill="#d53867"></path><path d="M0 503L22.8 503.2C45.7 503.3 91.3 503.7 137 504.7C182.7 505.7 228.3 507.3 274 509.2C319.7 511 365.3 513 411.2 508.8C457 504.7 503 494.3 548.8 488.2C594.7 482 640.3 480 686 479.3C731.7 478.7 777.3 479.3 823 482.5C868.7 485.7 914.3 491.3 937.2 494.2L960 497L960 541L937.2 541C914.3 541 868.7 541 823 541C777.3 541 731.7 541 686 541C640.3 541 594.7 541 548.8 541C503 541 457 541 411.2 541C365.3 541 319.7 541 274 541C228.3 541 182.7 541 137 541C91.3 541 45.7 541 22.8 541L0 541Z" fill="#c62368"></path></svg>