<svg id="visual" viewBox="0 0 960 540" width="960" height="540" xmlns="http://www.w3.org/2000/svg" xmlns:xlink="http://www.w3.org/1999/xlink" version="1.1"><g stroke-width="1" stroke-linejoin="bevel"><path d="M428.7 292L350 338L432.7 346Z" fill="#19435d" stroke="#19435d"></path><path d="M428.7 292L307 284L350 338Z" fill="#081a28" stroke="#081a28"></path><path d="M546.3 298L430.7 191L428.7 292Z" fill="#246688" stroke="#246688"></path><path d="M428.7 292L430.7 191L307 284Z" fill="#1d4e6b" stroke="#1d4e6b"></path><path d="M298 445L397.7 470L350 338Z" fill="#15384f" stroke="#15384f"></path><path d="M350 338L397.7 470L432.7 346Z" fill="#112e42" stroke="#112e42"></path><path d="M397.7 470L517.3 414L432.7 346Z" fill="#112e42" stroke="#112e42"></path><path d="M432.7 346L546.3 298L428.7 292Z" fill="#15384f" stroke="#15384f"></path><path d="M557.3 345L546.3 298L432.7 346Z" fill="#246688" stroke="#246688"></path><path d="M240.3 384L298 445L350 338Z" fill="#081a28" stroke="#081a28"></path><path d="M307 284L240.3 384L350 338Z" fill="#112e42" stroke="#112e42"></path><path d="M517.3 414L557.3 345L432.7 346Z" fill="#00101c" stroke="#00101c"></path><path d="M430.7 191L312 169L307 284Z" fill="#19435d" stroke="#19435d"></path><path d="M307 284L183.3 234L240.3 384Z" fill="#277297" stroke="#277297"></path><path d="M629 208L513.3 148L546.3 298Z" fill="#00101c" stroke="#00101c"></path><path d="M546.3 298L513.3 148L430.7 191Z" fill="#00101c" stroke="#00101c"></path><path d="M430.7 191L462.7 88L312 169Z" fill="#277297" stroke="#277297"></path><path d="M517.3 414L604 374L557.3 345Z" fill="#246688" stroke="#246688"></path><path d="M557.3 345L628 309L546.3 298Z" fill="#081a28" stroke="#081a28"></path><path d="M649 452L604 374L517.3 414Z" fill="#297ea6" stroke="#297ea6"></path><path d="M291 540L439.7 540L397.7 470Z" fill="#205a7a" stroke="#205a7a"></path><path d="M397.7 470L498.3 540L517.3 414Z" fill="#112e42" stroke="#112e42"></path><path d="M312 169L183.3 234L307 284Z" fill="#15384f" stroke="#15384f"></path><path d="M604 374L628 309L557.3 345Z" fill="#0c2435" stroke="#0c2435"></path><path d="M252.3 540L291 540L298 445Z" fill="#15384f" stroke="#15384f"></path><path d="M298 445L291 540L397.7 470Z" fill="#0c2435" stroke="#0c2435"></path><path d="M208.3 482L298 445L240.3 384Z" fill="#1d4e6b" stroke="#1d4e6b"></path><path d="M439.7 540L498.3 540L397.7 470Z" fill="#0c2435" stroke="#0c2435"></path><path d="M513.3 148L462.7 88L430.7 191Z" fill="#297ea6" stroke="#297ea6"></path><path d="M312 169L175.3 210L183.3 234Z" fill="#277297" stroke="#277297"></path><path d="M78.7 397L208.3 482L240.3 384Z" fill="#00101c" stroke="#00101c"></path><path d="M178.3 128L175.3 210L312 169Z" fill="#297ea6" stroke="#297ea6"></path><path d="M183.3 234L100.7 289L240.3 384Z" fill="#19435d" stroke="#19435d"></path><path d="M208.3 482L252.3 540L298 445Z" fill="#297ea6" stroke="#297ea6"></path><path d="M628 309L629 208L546.3 298Z" fill="#205a7a" stroke="#205a7a"></path><path d="M513.3 148L567.3 51L462.7 88Z" fill="#0c2435" stroke="#0c2435"></path><path d="M462.7 88L320 51L312 169Z" fill="#205a7a" stroke="#205a7a"></path><path d="M625 540L649 452L517.3 414Z" fill="#081a28" stroke="#081a28"></path><path d="M604 374L739.7 372L628 309Z" fill="#246688" stroke="#246688"></path><path d="M628 309L730.7 206L629 208Z" fill="#205a7a" stroke="#205a7a"></path><path d="M320 51L178.3 128L312 169Z" fill="#246688" stroke="#246688"></path><path d="M629 208L614 127L513.3 148Z" fill="#112e42" stroke="#112e42"></path><path d="M462.7 88L390.7 0L320 51Z" fill="#246688" stroke="#246688"></path><path d="M120.7 148L100.7 289L175.3 210Z" fill="#297ea6" stroke="#297ea6"></path><path d="M175.3 210L100.7 289L183.3 234Z" fill="#00101c" stroke="#00101c"></path><path d="M498.3 540L625 540L517.3 414Z" fill="#1d4e6b" stroke="#1d4e6b"></path><path d="M554.3 0L390.7 0L462.7 88Z" fill="#246688" stroke="#246688"></path><path d="M141.7 53L120.7 148L178.3 128Z" fill="#15384f" stroke="#15384f"></path><path d="M614 127L567.3 51L513.3 148Z" fill="#19435d" stroke="#19435d"></path><path d="M178.3 128L120.7 148L175.3 210Z" fill="#00101c" stroke="#00101c"></path><path d="M141.7 53L178.3 128L206.3 0Z" fill="#15384f" stroke="#15384f"></path><path d="M0 307L78.7 397L100.7 289Z" fill="#297ea6" stroke="#297ea6"></path><path d="M100.7 289L78.7 397L240.3 384Z" fill="#112e42" stroke="#112e42"></path><path d="M208.3 482L91.7 540L252.3 540Z" fill="#081a28" stroke="#081a28"></path><path d="M390.7 0L335 0L320 51Z" fill="#246688" stroke="#246688"></path><path d="M754.7 540L719.7 432L649 452Z" fill="#00101c" stroke="#00101c"></path><path d="M649 452L719.7 432L604 374Z" fill="#081a28" stroke="#081a28"></path><path d="M629 208L730.7 206L614 127Z" fill="#00101c" stroke="#00101c"></path><path d="M78.7 397L73.7 459L208.3 482Z" fill="#0c2435" stroke="#0c2435"></path><path d="M719.7 432L739.7 372L604 374Z" fill="#246688" stroke="#246688"></path><path d="M755.7 253L730.7 206L628 309Z" fill="#277297" stroke="#277297"></path><path d="M648 0L554.3 0L567.3 51Z" fill="#15384f" stroke="#15384f"></path><path d="M648 0L567.3 51L614 127Z" fill="#112e42" stroke="#112e42"></path><path d="M567.3 51L554.3 0L462.7 88Z" fill="#19435d" stroke="#19435d"></path><path d="M206.3 0L178.3 128L320 51Z" fill="#19435d" stroke="#19435d"></path><path d="M739.7 372L755.7 253L628 309Z" fill="#00101c" stroke="#00101c"></path><path d="M335 0L206.3 0L320 51Z" fill="#0c2435" stroke="#0c2435"></path><path d="M73.7 459L91.7 540L208.3 482Z" fill="#112e42" stroke="#112e42"></path><path d="M0 212L100.7 289L120.7 148Z" fill="#15384f" stroke="#15384f"></path><path d="M0 212L0 307L100.7 289Z" fill="#19435d" stroke="#19435d"></path><path d="M78.7 397L0 462L73.7 459Z" fill="#1d4e6b" stroke="#1d4e6b"></path><path d="M73.7 459L0 540L91.7 540Z" fill="#0c2435" stroke="#0c2435"></path><path d="M0 307L0 372L78.7 397Z" fill="#00101c" stroke="#00101c"></path><path d="M886.3 190L738.7 114L730.7 206Z" fill="#297ea6" stroke="#297ea6"></path><path d="M730.7 206L738.7 114L614 127Z" fill="#0c2435" stroke="#0c2435"></path><path d="M0 92L0 212L120.7 148Z" fill="#297ea6" stroke="#297ea6"></path><path d="M738.7 114L648 0L614 127Z" fill="#1d4e6b" stroke="#1d4e6b"></path><path d="M206.3 0L127.7 0L141.7 53Z" fill="#081a28" stroke="#081a28"></path><path d="M141.7 53L0 92L120.7 148Z" fill="#1d4e6b" stroke="#1d4e6b"></path><path d="M0 372L0 462L78.7 397Z" fill="#00101c" stroke="#00101c"></path><path d="M625 540L754.7 540L649 452Z" fill="#00101c" stroke="#00101c"></path><path d="M841.3 441L837.3 374L739.7 372Z" fill="#0c2435" stroke="#0c2435"></path><path d="M739.7 372L846.3 272L755.7 253Z" fill="#15384f" stroke="#15384f"></path><path d="M841.3 441L739.7 372L719.7 432Z" fill="#081a28" stroke="#081a28"></path><path d="M755.7 253L886.3 190L730.7 206Z" fill="#081a28" stroke="#081a28"></path><path d="M0 462L0 540L73.7 459Z" fill="#277297" stroke="#277297"></path><path d="M0 0L0 92L141.7 53Z" fill="#205a7a" stroke="#205a7a"></path><path d="M837.3 374L846.3 272L739.7 372Z" fill="#0c2435" stroke="#0c2435"></path><path d="M754.7 540L841.3 441L719.7 432Z" fill="#112e42" stroke="#112e42"></path><path d="M960 218L886.3 190L846.3 272Z" fill="#297ea6" stroke="#297ea6"></path><path d="M837.3 0L740.7 0L738.7 114Z" fill="#0c2435" stroke="#0c2435"></path><path d="M738.7 114L740.7 0L648 0Z" fill="#00101c" stroke="#00101c"></path><path d="M127.7 0L0 0L141.7 53Z" fill="#277297" stroke="#277297"></path><path d="M960 306L846.3 272L837.3 374Z" fill="#246688" stroke="#246688"></path><path d="M846.3 272L886.3 190L755.7 253Z" fill="#00101c" stroke="#00101c"></path><path d="M754.7 540L866.3 540L841.3 441Z" fill="#081a28" stroke="#081a28"></path><path d="M960 387L960 306L837.3 374Z" fill="#19435d" stroke="#19435d"></path><path d="M886.3 190L871.3 65L738.7 114Z" fill="#0c2435" stroke="#0c2435"></path><path d="M871.3 65L837.3 0L738.7 114Z" fill="#19435d" stroke="#19435d"></path><path d="M960 387L837.3 374L841.3 441Z" fill="#15384f" stroke="#15384f"></path><path d="M886.3 190L960 96L871.3 65Z" fill="#277297" stroke="#277297"></path><path d="M960 425L960 387L841.3 441Z" fill="#112e42" stroke="#112e42"></path><path d="M866.3 540L960 425L841.3 441Z" fill="#205a7a" stroke="#205a7a"></path><path d="M960 306L960 218L846.3 272Z" fill="#15384f" stroke="#15384f"></path><path d="M871.3 65L960 0L837.3 0Z" fill="#19435d" stroke="#19435d"></path><path d="M866.3 540L960 540L960 425Z" fill="#297ea6" stroke="#297ea6"></path><path d="M960 218L960 96L886.3 190Z" fill="#297ea6" stroke="#297ea6"></path><path d="M960 96L960 0L871.3 65Z" fill="#15384f" stroke="#15384f"></path></g></svg>